<?xml version="1.0" standalone="no"?>
<!DOCTYPE svg PUBLIC "-//W3C//DTD SVG 20010904//EN"
 "http://www.w3.org/TR/2001/REC-SVG-20010904/DTD/svg10.dtd">
<svg version="1.0" xmlns="http://www.w3.org/2000/svg"
 width="260.000000pt" height="260.000000pt" viewBox="0 0 260.000000 260.000000"
 preserveAspectRatio="xMidYMid meet">
<metadata>
Created by potrace 1.11, written by Peter Selinger 2001-2013
</metadata>
<g transform="translate(0.000000,260.000000) scale(0.100000,-0.100000)"
fill="#000000" stroke="none">
<path d="M968 2588 c8 -8 6 -15 -6 -25 -9 -8 -11 -12 -4 -8 14 7 15 4 6 -19
-3 -9 -10 -13 -16 -10 -5 3 -12 -3 -15 -14 -3 -13 -17 -23 -35 -27 -27 -6 -28
-8 -11 -20 17 -13 17 -14 -2 -11 -11 2 -23 -2 -27 -8 -6 -8 -8 -8 -8 0 0 7
-15 9 -45 4 -24 -4 -42 -3 -39 2 3 4 0 8 -5 8 -6 0 -11 -4 -11 -9 0 -5 -9 -7
-20 -4 -12 3 -20 0 -20 -7 0 -7 -7 -10 -15 -6 -9 3 -18 -1 -21 -8 -3 -8 -16
-13 -30 -11 -16 1 -30 -5 -39 -17 -7 -11 -18 -17 -24 -13 -6 3 -11 -1 -11 -9
0 -9 -5 -16 -11 -16 -8 0 -8 -4 1 -15 10 -12 8 -14 -7 -11 -12 3 -22 -5 -30
-20 -8 -18 -8 -23 0 -18 7 3 -1 -6 -18 -21 -22 -19 -25 -24 -10 -20 14 5 13 2
-5 -9 -14 -8 -20 -15 -15 -16 6 0 11 -9 12 -20 1 -12 -3 -18 -9 -14 -6 4 -6
-2 1 -15 8 -14 8 -21 1 -21 -5 0 -10 -5 -10 -11 0 -5 5 -7 12 -3 7 5 8 3 4 -5
-5 -7 -14 -10 -21 -7 -8 3 -19 -3 -27 -12 -8 -10 -8 -13 -1 -9 6 4 14 3 18 -3
3 -5 0 -10 -7 -10 -9 0 -9 -3 2 -10 11 -7 11 -10 2 -10 -10 0 -10 -5 -1 -21 6
-12 7 -19 2 -16 -16 10 -53 -22 -46 -40 4 -11 3 -14 -5 -9 -11 6 -16 -5 -13
-26 0 -4 -7 -4 -16 -1 -11 4 -14 3 -9 -5 4 -7 2 -12 -4 -12 -7 0 -10 -7 -6
-15 3 -8 0 -14 -7 -12 -7 1 -11 -4 -9 -11 1 -8 -2 -11 -8 -7 -5 3 -10 1 -10
-5 0 -6 -4 -8 -10 -5 -5 3 -10 -1 -10 -9 0 -9 -5 -16 -11 -16 -5 0 -7 -4 -4
-10 3 -5 -1 -10 -10 -10 -11 0 -15 -5 -11 -16 3 -8 2 -13 -3 -10 -5 3 -15 -2
-22 -11 -12 -14 -12 -16 0 -8 10 6 12 4 7 -4 -5 -7 -15 -10 -23 -6 -13 4 -14
3 -3 -10 11 -13 7 -19 -12 -17 -3 1 -9 -5 -12 -14 -4 -10 -2 -13 6 -8 7 5 8 3
4 -5 -5 -7 -14 -10 -20 -8 -7 3 -13 -1 -13 -9 0 -7 5 -11 11 -8 6 3 0 -3 -13
-14 -13 -10 -21 -24 -17 -30 4 -7 -1 -9 -14 -7 -18 3 -19 1 -8 -18 10 -20 10
-21 -5 -8 -15 12 -17 11 -18 -5 -1 -11 -1 -22 0 -26 0 -4 -5 -5 -13 -2 -8 3
-17 0 -22 -7 -4 -7 -3 -10 4 -5 6 3 13 2 16 -3 4 -5 -2 -8 -11 -7 -9 2 -19 8
-21 15 -3 8 -8 7 -16 -5 -12 -15 -13 -15 -29 1 -16 15 -17 4 -17 -184 0 -168
2 -202 16 -215 17 -18 28 -21 19 -6 -3 6 1 10 9 10 19 0 40 -36 30 -52 -4 -6
-3 -8 4 -4 6 3 13 2 17 -4 3 -5 -1 -10 -10 -10 -9 0 -13 -5 -10 -10 4 -6 10
-8 15 -5 5 3 12 0 16 -7 4 -7 4 -10 -1 -6 -4 4 -14 3 -22 -3 -11 -10 -11 -15
-1 -27 7 -9 8 -13 3 -10 -6 4 -15 -5 -22 -18 -6 -14 -7 -26 -2 -30 5 -3 9 0 9
7 0 7 3 9 7 6 3 -4 -2 -17 -13 -29 -10 -12 -13 -18 -6 -14 10 6 13 3 10 -10
-2 -11 3 -25 12 -32 8 -8 9 -11 3 -7 -8 4 -13 0 -13 -9 0 -9 5 -16 11 -16 5 0
7 -6 3 -12 -5 -9 -2 -8 9 1 15 12 17 12 11 -4 -5 -11 -3 -16 2 -12 6 4 9 -5 6
-22 -2 -16 1 -32 7 -35 6 -4 11 -13 11 -19 0 -7 -4 -6 -10 3 -8 13 -10 12 -10
-2 0 -10 7 -18 16 -18 9 0 12 -5 8 -12 -4 -7 -3 -8 5 -4 6 4 8 13 4 19 -5 8
-2 8 9 0 8 -7 18 -10 21 -6 4 3 7 1 7 -5 0 -7 5 -12 11 -12 5 0 8 4 5 8 -3 5
1 9 9 9 8 0 17 -9 21 -19 4 -14 9 -16 18 -9 10 8 12 5 11 -12 -3 -29 12 -46
35 -42 12 2 17 -1 14 -10 -6 -15 37 -65 57 -65 12 0 12 -2 1 -9 -10 -6 -8 -10
9 -14 20 -5 21 -8 8 -24 -7 -10 -10 -15 -5 -11 11 9 48 -31 40 -44 -4 -7 -3
-8 4 -4 7 4 12 2 12 -3 0 -6 5 -11 11 -11 5 0 7 4 4 10 -3 6 1 7 10 3 13 -4
14 -8 4 -13 -9 -6 -9 -12 3 -24 9 -8 19 -12 23 -8 5 4 6 0 2 -10 -4 -11 1 -18
15 -21 13 -4 17 -10 12 -18 -5 -9 -2 -10 10 -6 11 4 15 3 11 -4 -4 -6 2 -13
14 -16 12 -3 21 -10 21 -15 0 -13 31 -43 44 -43 6 0 10 -8 10 -18 -1 -9 2 -17
8 -17 5 0 6 -5 3 -10 -3 -5 -1 -10 4 -10 6 0 10 -5 9 -12 -2 -7 7 -17 20 -23
26 -12 30 -27 5 -19 -17 5 -17 5 0 -6 9 -6 21 -9 25 -6 4 2 9 -5 9 -16 1 -12
7 -26 14 -32 9 -8 10 -8 5 1 -5 9 -2 11 8 7 9 -3 15 -9 14 -12 -3 -24 4 -33
19 -28 10 4 14 4 11 0 -10 -9 17 -34 36 -34 9 0 16 -5 16 -11 0 -5 -6 -7 -12
-3 -9 5 -9 2 1 -9 7 -9 19 -17 25 -17 6 0 4 5 -4 10 -13 8 -12 10 3 10 9 0 17
-5 17 -11 0 -5 4 -8 9 -5 5 3 14 -1 21 -9 15 -18 36 -19 44 -2 3 6 3 -1 0 -18
-4 -22 -3 -26 4 -16 11 16 46 25 36 10 -3 -5 0 -9 6 -9 6 0 9 -4 6 -8 -3 -5 1
-9 9 -9 11 0 12 4 4 13 -7 8 -6 14 2 20 7 4 9 3 6 -3 -4 -6 2 -13 13 -16 11
-3 18 -1 15 3 -3 5 0 12 6 16 7 4 9 3 5 -4 -3 -6 -2 -13 3 -16 5 -3 12 2 15
11 5 12 9 14 18 5 15 -15 28 -15 28 -1 0 5 -6 7 -12 3 -9 -5 -8 -2 1 10 8 9
20 15 27 12 7 -3 16 -1 19 4 3 4 17 6 33 4 15 -2 36 -5 47 -7 11 -1 26 -7 34
-11 10 -6 12 -5 7 2 -4 7 -2 12 4 12 7 0 10 7 6 17 -6 17 -5 17 8 1 16 -22 30
-24 23 -4 -4 10 -1 13 8 9 8 -3 12 -10 8 -16 -3 -6 -1 -7 6 -3 9 6 9 12 -1 24
-12 15 -10 15 14 -1 17 -10 29 -13 33 -7 4 6 11 8 16 5 5 -4 12 2 16 11 6 16
7 16 14 -2 7 -17 8 -17 8 -1 1 9 6 17 12 17 5 0 8 -4 5 -9 -11 -17 19 -18 44
-2 23 14 24 14 12 0 -11 -14 -9 -17 13 -17 14 0 25 5 25 10 0 5 -5 6 -12 2 -7
-4 -8 -3 -4 5 6 9 11 9 22 0 7 -6 12 -15 9 -19 -3 -5 4 -6 16 -3 16 5 18 8 7
15 -10 8 -10 9 2 5 8 -2 14 -11 12 -21 -2 -9 2 -16 8 -16 5 0 10 7 10 16 0 12
4 14 13 7 6 -6 20 -9 30 -8 10 2 17 -3 17 -13 0 -15 2 -15 10 -2 8 12 10 12
10 -5 1 -18 2 -17 15 5 l15 25 -3 -25 c-1 -16 3 -24 11 -23 6 2 18 4 25 5 6 2
15 7 18 11 3 5 9 2 12 -6 4 -11 0 -15 -13 -12 -11 2 -22 1 -24 -3 -3 -4 11 -8
29 -8 19 0 31 4 28 10 -4 5 1 7 12 2 15 -5 16 -4 6 8 -9 11 -9 16 0 21 8 6 7
10 -2 16 -12 7 -12 9 0 9 11 0 11 3 0 18 -13 16 -12 16 5 2 16 -13 20 -12 32
4 7 11 11 23 8 27 -3 5 2 6 10 3 10 -4 16 -1 16 10 0 8 9 20 20 26 12 7 18 16
13 23 -4 7 0 7 10 -2 13 -10 17 -10 17 -1 0 7 7 10 16 6 8 -3 13 -2 10 3 -8
12 19 33 29 23 4 -4 2 4 -5 18 -12 22 -12 24 2 12 13 -11 17 -9 22 13 4 14 11
25 17 25 7 0 6 -6 -2 -17 -12 -16 -12 -17 2 -6 9 7 19 10 23 6 4 -4 2 6 -3 22
-10 28 -10 29 4 11 14 -19 21 -11 16 17 -1 5 3 6 8 2 6 -3 8 -13 5 -23 -5 -15
-4 -15 6 1 6 9 15 15 19 12 5 -2 8 3 7 13 -1 11 6 17 21 16 15 0 20 5 18 17
-3 12 1 16 11 12 8 -3 14 0 14 7 0 7 7 10 16 6 10 -4 13 -2 8 6 -5 8 -2 9 11
4 14 -5 16 -4 7 7 -17 20 -3 28 22 15 19 -10 20 -10 7 5 -8 11 -9 17 -3 17 6
0 10 6 8 13 -1 6 -1 9 1 4 3 -4 10 -4 16 0 7 4 6 -1 -2 -10 -7 -9 -9 -17 -3
-17 12 0 24 28 17 40 -3 5 -1 11 4 14 5 4 13 1 17 -5 5 -8 3 -9 -6 -4 -9 5
-11 4 -6 -4 6 -9 11 -9 22 0 10 8 11 15 4 24 -7 9 -5 16 7 26 14 12 16 12 9 0
-6 -9 -5 -12 5 -9 8 3 13 11 11 17 -2 9 3 9 17 1 14 -7 23 -6 33 4 11 10 16
11 25 0 13 -13 56 -7 47 7 -3 5 0 9 7 9 8 0 7 5 -2 17 -13 15 -12 15 7 5 18
-9 20 -8 20 10 -1 15 6 22 21 23 13 1 26 5 30 10 5 4 0 5 -9 2 -12 -4 -15 -2
-11 8 3 8 9 12 14 9 5 -3 9 0 9 5 0 6 -4 11 -10 11 -5 0 -10 5 -10 11 0 5 6 7
13 3 7 -5 6 0 -3 11 -14 17 -13 18 2 12 14 -5 16 -2 9 16 -4 12 -6 28 -4 35 3
6 -1 12 -8 12 -7 0 -9 3 -6 6 3 4 2 16 -4 27 -8 14 -8 18 0 13 18 -11 12 6 -6
20 -16 12 -16 12 5 7 17 -4 22 -1 22 15 0 12 5 24 12 28 6 4 8 3 5 -2 -3 -6
-2 -16 3 -24 5 -9 9 131 10 343 0 282 -2 357 -12 357 -10 0 -10 2 0 9 16 10
13 79 -4 85 -8 3 -10 -3 -7 -17 4 -21 4 -21 -7 -3 -10 15 -14 16 -21 5 -7 -11
-9 -11 -9 -1 0 7 -4 10 -10 7 -6 -4 -7 1 -3 11 4 12 3 15 -5 10 -7 -4 -12 -2
-12 3 0 6 -6 10 -12 9 -7 -2 -12 2 -11 9 2 7 -6 10 -19 8 -16 -3 -19 -2 -10 7
8 8 6 16 -10 29 -11 10 -25 16 -31 12 -6 -3 -7 -1 -3 6 4 6 13 9 19 5 7 -3 4
1 -7 10 -10 8 -15 19 -11 25 3 6 1 11 -5 11 -6 0 -8 4 -5 10 4 6 -1 7 -11 3
-12 -4 -15 -3 -10 5 4 7 3 12 -3 12 -5 0 -8 8 -6 18 1 9 -2 25 -7 34 -6 13 -5
16 6 12 11 -4 13 0 9 15 -3 11 -10 18 -16 14 -6 -3 -7 -1 -3 6 4 6 12 8 18 5
8 -5 9 -1 5 10 -4 10 -3 15 3 11 6 -3 10 -1 10 5 0 6 4 8 10 5 6 -4 7 1 3 10
-3 10 0 21 8 26 12 7 12 9 -1 9 -12 1 -11 3 3 11 14 8 16 14 7 24 -10 11 -8
13 9 10 14 -2 18 1 15 10 -3 8 -13 11 -22 8 -9 -4 -14 -3 -10 2 4 4 0 14 -10
22 -9 8 -11 11 -3 7 10 -5 12 -3 7 5 -5 7 -11 10 -14 7 -3 -3 -11 -1 -19 5
-10 9 -13 8 -13 -1 0 -10 -3 -10 -15 0 -8 7 -12 17 -8 23 3 6 1 7 -5 3 -7 -4
-12 -1 -12 6 0 9 -3 9 -10 -2 -7 -12 -10 -12 -10 -1 0 8 -6 11 -17 7 -10 -4
-14 -4 -11 0 12 11 -22 36 -42 31 -14 -3 -27 3 -40 20 -12 16 -26 23 -35 19
-11 -4 -14 -2 -9 6 5 8 2 9 -11 4 -16 -6 -16 -4 -4 11 9 11 10 14 2 9 -8 -4
-13 -2 -13 5 0 10 -3 10 -12 1 -13 -13 -29 -16 -25 -4 3 9 -40 52 -52 52 -5 0
-12 10 -16 23 -4 14 -8 17 -12 9 -4 -10 -9 -9 -24 4 -10 9 -16 21 -12 27 3 6
1 7 -6 3 -6 -4 -9 -13 -5 -19 3 -7 -1 -4 -9 5 -8 10 -17 15 -20 11 -4 -3 -7
-1 -7 7 0 10 -3 10 -14 1 -12 -10 -20 -9 -40 4 -25 17 -38 34 -14 19 7 -5 8
-3 3 5 -5 9 -11 9 -17 3 -12 -12 -40 -4 -32 9 3 5 -2 6 -10 3 -9 -3 -16 -10
-16 -16 0 -5 -6 -6 -12 -1 -7 4 -22 8 -33 8 -11 0 -26 4 -34 9 -10 6 -12 6 -7
-2 12 -20 -2 -13 -30 14 -21 22 -28 24 -35 13 -6 -10 -9 -10 -9 -1 0 6 -5 12
-11 12 -5 0 -7 -6 -3 -12 6 -10 5 -10 -7 -1 -12 10 -18 10 -27 1 -9 -9 -12 -9
-12 0 0 7 -5 12 -11 12 -5 0 -7 -5 -4 -11 4 -6 0 -9 -11 -7 -11 2 -18 -2 -17
-8 3 -16 -30 -13 -51 5 -19 16 -19 15 -1 -14 l18 -30 -25 28 c-14 15 -32 27
-41 27 -9 0 -17 8 -19 18 -2 11 -13 17 -33 18 -17 1 -38 2 -47 3 -10 1 -18 6
-18 12 0 5 5 7 12 3 7 -4 8 -3 4 4 -4 6 -14 8 -23 5 -9 -4 -14 -2 -10 3 3 6
-3 10 -13 11 -11 1 -22 -3 -25 -8 -8 -12 -25 -2 -25 14 0 7 4 6 11 -3 9 -13
10 -13 6 0 -2 8 -9 15 -16 15 -6 0 -16 7 -22 15 -8 12 -12 12 -16 2 -4 -10 -9
-9 -20 5 -8 10 -12 12 -8 6 10 -20 -9 -15 -24 6 -12 16 -27 19 -99 19 -61 0
-81 -3 -74 -10z m-678 -1864 c0 -8 -19 -13 -24 -6 -3 5 1 9 9 9 8 0 15 -2 15
-3z m38 -59 c-3 -3 -9 2 -12 12 -6 14 -5 15 5 6 7 -7 10 -15 7 -18z m2082
-101 c0 -8 -19 -13 -24 -6 -3 5 1 9 9 9 8 0 15 -2 15 -3z m-1790 -198 c0 -3
-4 -8 -10 -11 -5 -3 -10 -1 -10 4 0 6 5 11 10 11 6 0 10 -2 10 -4z m1360 -121
c-7 -8 -17 -15 -23 -15 -6 0 -2 7 9 15 25 19 30 19 14 0z m-584 -137 c4 -7 4
-10 -1 -6 -4 4 -15 2 -24 -5 -14 -11 -14 -10 -2 6 16 20 18 21 27 5z m354 -32
c0 -2 -8 -10 -17 -17 -16 -13 -17 -12 -4 4 13 16 21 21 21 13z"/>
<path d="M2410 2590 c0 -4 10 -12 23 -19 12 -6 14 -9 5 -7 -10 3 -20 0 -24 -7
-4 -7 -4 -9 1 -5 4 4 18 -1 30 -10 14 -11 36 -17 56 -16 19 1 37 -3 41 -9 5
-7 8 -2 8 12 0 24 0 24 16 5 8 -10 12 -13 8 -5 -5 11 -3 13 9 8 14 -5 17 0 17
29 l0 35 -95 -2 c-52 -1 -95 -5 -95 -9z"/>
<path d="M1886 2397 c3 -10 9 -15 12 -12 3 3 0 11 -7 18 -10 9 -11 8 -5 -6z"/>
<path d="M2520 611 c0 -5 5 -13 10 -16 6 -3 10 -2 10 4 0 5 -4 13 -10 16 -5 3
-10 2 -10 -4z"/>
<path d="M1636 72 c-3 -5 1 -9 9 -9 8 0 12 4 9 9 -3 4 -7 8 -9 8 -2 0 -6 -4
-9 -8z"/>
<path d="M1150 58 c0 -4 4 -8 9 -8 6 0 12 4 15 8 3 5 -1 9 -9 9 -8 0 -15 -4
-15 -9z"/>
<path d="M1110 56 c0 -2 7 -7 16 -10 8 -3 12 -2 9 4 -6 10 -25 14 -25 6z"/>
</g>
</svg>
